<mxfile host="app.diagrams.net" modified="2023-12-01T20:25:39.111Z" agent="Mozilla/5.0 (Macintosh; Intel Mac OS X 10_15_7) AppleWebKit/537.36 (KHTML, like Gecko) Chrome/119.0.0.0 Safari/537.36" etag="gpvCJjLlRjGK5tR9KOvi" version="22.1.5" type="github">
  <diagram name="Page-1" id="hbyJ4xRjI8NyeK1kbP31">
    <mxGraphModel dx="979" dy="774" grid="1" gridSize="10" guides="1" tooltips="1" connect="1" arrows="1" fold="1" page="1" pageScale="1" pageWidth="850" pageHeight="1100" math="0" shadow="0">
      <root>
        <mxCell id="0" />
        <mxCell id="1" parent="0" />
        <mxCell id="0GxXR_TOos8rq19A-3_0-1" value="" style="rounded=0;whiteSpace=wrap;html=1;" vertex="1" parent="1">
          <mxGeometry x="100" y="170" width="120" height="60" as="geometry" />
        </mxCell>
        <mxCell id="0GxXR_TOos8rq19A-3_0-21" value="" style="edgeStyle=orthogonalEdgeStyle;rounded=0;orthogonalLoop=1;jettySize=auto;html=1;" edge="1" parent="1" source="0GxXR_TOos8rq19A-3_0-2" target="0GxXR_TOos8rq19A-3_0-5">
          <mxGeometry relative="1" as="geometry" />
        </mxCell>
        <mxCell id="0GxXR_TOos8rq19A-3_0-2" value="" style="rhombus;whiteSpace=wrap;html=1;" vertex="1" parent="1">
          <mxGeometry x="525" y="180" width="80" height="80" as="geometry" />
        </mxCell>
        <mxCell id="0GxXR_TOos8rq19A-3_0-4" value="" style="shape=flexArrow;endArrow=classic;startArrow=classic;html=1;rounded=0;width=5;endSize=12.03;" edge="1" parent="1" target="0GxXR_TOos8rq19A-3_0-2">
          <mxGeometry width="100" height="100" relative="1" as="geometry">
            <mxPoint x="250" y="230" as="sourcePoint" />
            <mxPoint x="350" y="130" as="targetPoint" />
            <Array as="points">
              <mxPoint x="310" y="190" />
              <mxPoint x="340" y="200" />
            </Array>
          </mxGeometry>
        </mxCell>
        <mxCell id="0GxXR_TOos8rq19A-3_0-20" value="" style="edgeStyle=orthogonalEdgeStyle;rounded=0;orthogonalLoop=1;jettySize=auto;html=1;" edge="1" parent="1" source="0GxXR_TOos8rq19A-3_0-5" target="0GxXR_TOos8rq19A-3_0-18">
          <mxGeometry relative="1" as="geometry" />
        </mxCell>
        <mxCell id="0GxXR_TOos8rq19A-3_0-5" value="" style="shape=tape;whiteSpace=wrap;html=1;" vertex="1" parent="1">
          <mxGeometry x="505" y="290" width="120" height="100" as="geometry" />
        </mxCell>
        <mxCell id="0GxXR_TOos8rq19A-3_0-6" value="" style="endArrow=classic;startArrow=classic;html=1;rounded=0;entryX=0.75;entryY=0.1;entryDx=0;entryDy=0;entryPerimeter=0;" edge="1" parent="1" target="0GxXR_TOos8rq19A-3_0-7">
          <mxGeometry width="50" height="50" relative="1" as="geometry">
            <mxPoint x="150" y="420" as="sourcePoint" />
            <mxPoint x="230" y="400" as="targetPoint" />
            <Array as="points">
              <mxPoint x="200" y="440" />
              <mxPoint x="190" y="420" />
              <mxPoint x="150" y="420" />
              <mxPoint x="180" y="410" />
              <mxPoint x="190" y="390" />
              <mxPoint x="160" y="320" />
              <mxPoint x="200" y="360" />
              <mxPoint x="240" y="320" />
              <mxPoint x="220" y="370" />
              <mxPoint x="240" y="400" />
              <mxPoint x="210" y="410" />
            </Array>
          </mxGeometry>
        </mxCell>
        <mxCell id="0GxXR_TOos8rq19A-3_0-9" value="" style="edgeStyle=orthogonalEdgeStyle;rounded=0;orthogonalLoop=1;jettySize=auto;html=1;" edge="1" parent="1" source="0GxXR_TOos8rq19A-3_0-7" target="0GxXR_TOos8rq19A-3_0-8">
          <mxGeometry relative="1" as="geometry" />
        </mxCell>
        <mxCell id="0GxXR_TOos8rq19A-3_0-7" value="Actor" style="shape=umlActor;verticalLabelPosition=bottom;verticalAlign=top;html=1;outlineConnect=0;" vertex="1" parent="1">
          <mxGeometry x="190" y="430" width="30" height="60" as="geometry" />
        </mxCell>
        <mxCell id="0GxXR_TOos8rq19A-3_0-11" value="" style="edgeStyle=orthogonalEdgeStyle;rounded=0;orthogonalLoop=1;jettySize=auto;html=1;" edge="1" parent="1" source="0GxXR_TOos8rq19A-3_0-8" target="0GxXR_TOos8rq19A-3_0-10">
          <mxGeometry relative="1" as="geometry" />
        </mxCell>
        <mxCell id="0GxXR_TOos8rq19A-3_0-8" value="" style="whiteSpace=wrap;html=1;verticalAlign=top;" vertex="1" parent="1">
          <mxGeometry x="145" y="570" width="120" height="60" as="geometry" />
        </mxCell>
        <mxCell id="0GxXR_TOos8rq19A-3_0-13" value="" style="edgeStyle=orthogonalEdgeStyle;rounded=0;orthogonalLoop=1;jettySize=auto;html=1;" edge="1" parent="1" source="0GxXR_TOos8rq19A-3_0-10" target="0GxXR_TOos8rq19A-3_0-12">
          <mxGeometry relative="1" as="geometry" />
        </mxCell>
        <mxCell id="0GxXR_TOos8rq19A-3_0-10" value="" style="ellipse;whiteSpace=wrap;html=1;verticalAlign=top;" vertex="1" parent="1">
          <mxGeometry x="165" y="700" width="80" height="80" as="geometry" />
        </mxCell>
        <mxCell id="0GxXR_TOos8rq19A-3_0-15" value="" style="edgeStyle=orthogonalEdgeStyle;rounded=0;orthogonalLoop=1;jettySize=auto;html=1;" edge="1" parent="1" source="0GxXR_TOos8rq19A-3_0-12" target="0GxXR_TOos8rq19A-3_0-14">
          <mxGeometry relative="1" as="geometry" />
        </mxCell>
        <mxCell id="0GxXR_TOos8rq19A-3_0-12" value="" style="shape=parallelogram;perimeter=parallelogramPerimeter;whiteSpace=wrap;html=1;fixedSize=1;verticalAlign=top;" vertex="1" parent="1">
          <mxGeometry x="305" y="710" width="120" height="60" as="geometry" />
        </mxCell>
        <mxCell id="0GxXR_TOos8rq19A-3_0-17" value="" style="edgeStyle=orthogonalEdgeStyle;rounded=0;orthogonalLoop=1;jettySize=auto;html=1;" edge="1" parent="1" source="0GxXR_TOos8rq19A-3_0-14" target="0GxXR_TOos8rq19A-3_0-16">
          <mxGeometry relative="1" as="geometry" />
        </mxCell>
        <mxCell id="0GxXR_TOos8rq19A-3_0-14" value="" style="rounded=1;whiteSpace=wrap;html=1;verticalAlign=top;" vertex="1" parent="1">
          <mxGeometry x="305" y="570" width="120" height="60" as="geometry" />
        </mxCell>
        <mxCell id="0GxXR_TOos8rq19A-3_0-19" value="" style="edgeStyle=orthogonalEdgeStyle;rounded=0;orthogonalLoop=1;jettySize=auto;html=1;" edge="1" parent="1" source="0GxXR_TOos8rq19A-3_0-16" target="0GxXR_TOos8rq19A-3_0-18">
          <mxGeometry relative="1" as="geometry" />
        </mxCell>
        <mxCell id="0GxXR_TOos8rq19A-3_0-16" value="" style="rounded=1;whiteSpace=wrap;html=1;verticalAlign=top;" vertex="1" parent="1">
          <mxGeometry x="505" y="570" width="120" height="60" as="geometry" />
        </mxCell>
        <mxCell id="0GxXR_TOos8rq19A-3_0-18" value="" style="rounded=1;whiteSpace=wrap;html=1;verticalAlign=top;" vertex="1" parent="1">
          <mxGeometry x="505" y="430" width="120" height="60" as="geometry" />
        </mxCell>
      </root>
    </mxGraphModel>
  </diagram>
</mxfile>
